<svg fill="currentColor" height="33" viewBox="0 0 120 33" width="120" xmlns="http://www.w3.org/2000/svg" xmlns:xlink="http://www.w3.org/1999/xlink"><clipPath id="a"><path d="m0 0h120v32.7791h-120z"/></clipPath><g clip-path="url(#a)"><path d="m12.9834 26.1691-7.8556-4.5363v-10.4865l-3.04418-1.75723v14.00093l7.85558 4.5364z"/><path d="m23.2918 21.6342-9.0827 5.2418-3.0442 1.7572 3.0442 1.7573 12.1268-6.9991z"/><path d="m14.209 5.90309 3.0442-1.75724-3.0442-1.75724-12.12538 7.00048 3.04418 1.75721z"/><path d="m18.4803 4.85416-3.0441 1.75725 7.8555 4.53489v10.4865l3.0428 1.7572v-14.00092z"/><path d="m14.2091.577186 13.6931 7.905464v15.81945l-13.6931 7.9055-13.693125-7.9126v-15.81947l13.693125-7.905459m0-.427554-14.066522 8.123513v16.24707l14.066522 8.1235 14.0679-8.1235v-16.24707z"/><path d="m14.6494 8.82043.9292.55438v14.24039l-.9292.5359z"/><path d="m14.6494 8.82043-4.5834 2.64087v1.7872h1.6133v9.1909l2.9687 1.7131z"/><path d="m65.078 17.447c-.971 2.247-3.0613 3.371-6.2708 3.372-.409.0271-3.1354-.0841-3.7525-.1425v6.5829h-5.2047v-20.86321s5.1306-.32209 8.9601-.14252c3.2437.1582 4.8983.91924 5.9145 2.76057 1.0289 1.90406 1.3225 6.18386.3534 8.43276zm-4.7587-6.6983c-.3306-.3492-.8551-.5573-1.5677-.6385-.7895-.095-2.0223-.0679-3.6983.0812v6.6741c1.281.1611 2.5759.1788 3.8608.0528.5886-.0556 1.0105-.2309 1.2641-.5316.7297-.5915 1.2699-4.4494.1411-5.6395z"/><path d="m44.8703 27.1069h-4.8071v-16.2314h-3.4062l-.2851-4.27549h8.4998z"/><path d="m116.041 21.4447c0 .9805.321 1.5828.965 1.8071.329.0883 1.341.1425 1.948.1739.107.0085.214.0128.322.0128h.634v3.7881c-.276.0181-.642.0271-1.097.0271-3.187 0-5.923-.285-6.905-2.5297-.26-.6599-.305-2.1378-.358-2.7306-.021-.237-.03-.4748-.027-.7126v-15.35776l4.524-.55582z"/><path d="m109.783 18.5173v2.6252h-8.285v.4475c0 1.0015.307 1.6105.921 1.8271.53.1419 1.076.21 1.625.2024h.365c1.624 0 2.609-.0442 4.314-.3962h.027l.681 3.5786c0 .0437-.776.1924-2.329.4461-1.115.1153-2.235.1696-3.356.1625-3.25 0-5.3478-1.0965-6.2951-3.2893-.3518-.8638-.5314-1.7881-.5288-2.7207v-3.5473c0-2.5995 1.0927-4.3278 3.2779-5.1848 1.002-.3209 2.048-.4806 3.1-.4731 3.059 0 5.044.9976 5.956 2.9928.351.7848.527 1.8946.527 3.3292zm-4.576-.6912c0-1.0289-.221-1.638-.663-1.827-.362-.234-.787-.3523-1.219-.3392-1.218 0-1.827.5734-1.827 1.7202v.6954h3.706z"/><path d="m79.7886 18.1112v9.1211h-3.9905l-.0185-.9235c-1.3948.7259-2.7577 1.0884-4.0888 1.0874h-.3934c-1.3682 0-2.4551-.5254-3.2608-1.5763-.533-.8196-.8116-1.7786-.801-2.7562v-.1098c0-1.7929.6295-2.9833 1.8884-3.5715.5159-.3449 1.8242-.5168 3.925-.5159h2.1463v-.5031c0-1.0318-.1497-1.6247-.449-1.7786-.323-.2413-.8978-.362-1.7244-.362h-4.2756l.0727-3.6556 4.9254-.1339c2.9245 0 4.7354.7244 5.4328 2.1734.4076.8427.6114 2.0109.6114 3.5045zm-7.6803 3.7909c-.1354.1611-.285.687-.285 1.0575 0 .8152.4166 1.2228 1.2499 1.2228.4978 0 1.2043-.2038 2.1192-.6114v-1.9952s-2.5881-.2637-3.0841.3263z"/><path d="m94.867 18.5658v8.6936h-4.6005v-9.5173c0-.925-.3093-1.3625-1.3055-1.6732s-2.5154.067-2.8418.2665v10.924h-4.5634v-14.8846h4.2214s-.0556.8551-.02.9791c.0606-.0233.1196-.0505.1767-.0812l.2722-.1425c.2743-.1338.556-.2518.8437-.3535.3937-.1525.7981-.2754 1.21-.3677.5055-.1086 1.0196-.172 1.5364-.1895 1.0451-.0456 1.8788.0446 2.5012.2708.8171.3097 1.4878.8993 2.0123 1.7686.3725.6869.5582 2.1226.5573 4.3069z"/></g></svg>
