<svg width="33" height="33" viewBox="0 0 33 33" fill="currentColor" xmlns="http://www.w3.org/2000/svg">
<path d="M19.4207 4.84191L7.78421 11.5601V21.6237L15.323 25.9772L12.4016 27.6635L4.86277 23.3101V9.87373L16.4993 3.15553L19.4207 4.84191Z"/>
<path d="M25.2158 21.6251L13.5779 28.3419L16.4993 30.0283L28.1372 23.3115L25.2158 21.6251Z"/>
<path d="M20.5983 5.52166L17.6769 7.20806L25.2157 11.5601V21.6237L28.1358 23.3101V9.87372L20.5983 5.52166Z"/>
<path d="M16.9219 9.32801L17.8136 9.86003V23.5262L16.9219 24.0405V9.32801Z"/>
<path d="M12.5233 11.8624L16.9219 9.32801L16.9205 24.0418L14.0716 22.3979V13.5775H12.5233V11.8624Z"/>
<path fill-rule="evenodd" clip-rule="evenodd" d="M3 8.79596L16.4993 1L30 8.79596V24.3879L16.4993 32.1838L3 24.3879V8.79596ZM29.6403 9.00384L16.4993 1.41714V1.41031L3.35834 8.99701V24.1786L16.4993 31.7722L29.6403 24.1854V9.00384Z" />
</svg>
