<?xml version="1.0" standalone="no"?><!DOCTYPE svg PUBLIC "-//W3C//DTD SVG 1.1//EN" "http://www.w3.org/Graphics/SVG/1.1/DTD/svg11.dtd"><svg t="1658573860772" class="icon" viewBox="0 0 1024 1024" version="1.1" xmlns="http://www.w3.org/2000/svg" p-id="2346" xmlns:xlink="http://www.w3.org/1999/xlink" width="200" height="200"><defs><style type="text/css">@font-face { font-family: element-icons; src: url("chrome-extension://moombeodfomdpjnpocobemoiaemednkg/fonts/element-icons.woff") format("woff"), url("chrome-extension://moombeodfomdpjnpocobemoiaemednkg/fonts/element-icons.ttf ") format("truetype"); }
@font-face { font-family: feedback-iconfont; src: url("//at.alicdn.com/t/font_1031158_u69w8yhxdu.woff2?t=1630033759944") format("woff2"), url("//at.alicdn.com/t/font_1031158_u69w8yhxdu.woff?t=1630033759944") format("woff"), url("//at.alicdn.com/t/font_1031158_u69w8yhxdu.ttf?t=1630033759944") format("truetype"); }
</style></defs><path d="M469.333333 298.666667a42.666667 42.666667 0 0 1 42.666667 42.666666v85.333334h85.333333a42.666667 42.666667 0 0 1 42.368 37.674666L640 469.333333a42.666667 42.666667 0 0 1-42.666667 42.666667h-85.333333v85.333333a42.666667 42.666667 0 0 1-37.674667 42.368L469.333333 640a42.666667 42.666667 0 0 1-42.666666-42.666667v-85.333333H341.333333a42.666667 42.666667 0 0 1-42.368-37.674667L298.666667 469.333333a42.666667 42.666667 0 0 1 42.666666-42.666666h85.333334V341.333333a42.666667 42.666667 0 0 1 37.674666-42.368L469.333333 298.666667z m0-128a298.666667 298.666667 0 1 0 207.573334 513.408l3.285333-3.84a40.448 40.448 0 0 1 3.797333-3.370667A298.666667 298.666667 0 0 0 469.333333 170.666667z m0-85.333334a384 384 0 0 1 384 384 382.122667 382.122667 0 0 1-83.968 239.658667l156.8 156.842667a42.624 42.624 0 1 1-60.330666 60.330666l-156.842667-156.8A382.122667 382.122667 0 0 1 469.333333 853.333333c-212.096 0-384-171.904-384-384s171.904-384 384-384z" p-id="2347" fill="#1d1d1c"></path></svg>