<svg height="172" node-id="1" sillyvg="true" template-height="172" template-width="260" version="1.1" viewBox="0 0 260 172" width="260" xmlns="http://www.w3.org/2000/svg" xmlns:xlink="http://www.w3.org/1999/xlink"><defs node-id="85"><linearGradient gradientUnits="objectBoundingBox" id="linearGradient-1" node-id="5" spreadMethod="pad" x1="0.5041026" x2="0.5041026" y1="0.0017346939" y2="0.5017347"><stop offset="0" stop-color="#a9a9a9" stop-opacity="0.15"/><stop offset="1" stop-color="#a9a9a9" stop-opacity="0"/></linearGradient><radialGradient cx="0.5521746" cy="0.5" fx="0.5521746" fy="0.5" gradientTransform="matrix(0.100592 0 0 0.075785 0.49663061 0.4621075)" gradientUnits="objectBoundingBox" id="radialGradient-2" node-id="8" r="4.861338" rev="14" spreadMethod="pad"><stop offset="0" stop-color="#808184" stop-opacity="0.495165"/><stop offset="1" stop-color="#ffffff" stop-opacity="0"/></radialGradient><linearGradient gradientUnits="objectBoundingBox" id="linearGradient-3" node-id="11" spreadMethod="pad" x1="0.5" x2="0.5" y1="-0.00000000000000008040613" y2="1"><stop offset="0" stop-color="#eeeeee"/><stop offset="1" stop-color="#d8d8d8" stop-opacity="0"/></linearGradient><linearGradient gradientUnits="objectBoundingBox" id="linearGradient-4" node-id="14" spreadMethod="pad" x1="0.5" x2="0.5" y1="-0.00000000000000008040613" y2="1"><stop offset="0" stop-color="#dadada"/><stop offset="1" stop-color="#f4f4f4" stop-opacity="0"/></linearGradient><linearGradient gradientUnits="objectBoundingBox" id="linearGradient-5" node-id="17" spreadMethod="pad" x1="0" x2="1.0002018" y1="0.5" y2="0.5"><stop offset="0" stop-color="#eeeeee"/><stop offset="0.03" stop-color="#dddddd"/><stop offset="1" stop-color="#d8d8d8"/></linearGradient><linearGradient gradientUnits="objectBoundingBox" id="linearGradient-6" node-id="21" spreadMethod="pad" x1="0.499857" x2="0.499857" y1="0" y2="0.6639232"><stop offset="0" stop-color="#dedede"/><stop offset="1" stop-color="#fdfdfd"/></linearGradient><linearGradient gradientUnits="objectBoundingBox" id="linearGradient-7" node-id="24" spreadMethod="pad" x1="0.6351158" x2="-0.028881898" y1="0.5006859" y2="0.5006859"><stop offset="0" stop-color="#ffffff" stop-opacity="0.67742026"/><stop offset="1" stop-color="#ffffff"/></linearGradient><linearGradient gradientUnits="objectBoundingBox" id="linearGradient-8" node-id="27" spreadMethod="pad" x1="0.6351158" x2="-0.028881898" y1="0.5006859" y2="0.5006859"><stop offset="0" stop-color="#ffffff" stop-opacity="0.67742026"/><stop offset="1" stop-color="#ffffff"/></linearGradient><linearGradient gradientUnits="objectBoundingBox" id="linearGradient-9" node-id="30" spreadMethod="pad" x1="0.5" x2="0.5" y1="0.24543287" y2="0.85196954"><stop offset="0" stop-color="#e8e8e8"/><stop offset="1" stop-color="#ffffff" stop-opacity="0"/></linearGradient><radialGradient cx="0.30647263" cy="0.35897437" fx="0.30647263" fy="0.35897437" gradientUnits="objectBoundingBox" id="radialGradient-10" node-id="33" r="0.9459459" rev="6" spreadMethod="pad"><stop offset="0" stop-color="#ffffff"/><stop offset="1" stop-color="#c2c2c2"/></radialGradient><radialGradient cx="0.7678125" cy="0.356875" fx="0.7678125" fy="0.356875" gradientUnits="objectBoundingBox" id="radialGradient-11" node-id="36" r="0.94" rev="5" spreadMethod="pad"><stop offset="0" stop-color="#ffffff"/><stop offset="1" stop-color="#d8d8d8"/></radialGradient><linearGradient gradientUnits="objectBoundingBox" id="linearGradient-12" node-id="39" spreadMethod="pad" x1="-0.00024826935" x2="1" y1="0.50209016" y2="0.50209016"><stop offset="0" stop-color="#fff7ed"/><stop offset="1" stop-color="#ffebd6"/></linearGradient><linearGradient gradientUnits="objectBoundingBox" id="linearGradient-13" node-id="42" spreadMethod="pad" x1="0.00056556927" x2="0.99726284" y1="0.49886954" y2="0.49886954"><stop offset="0" stop-color="#fff7ed"/><stop offset="1" stop-color="#ffebd6"/></linearGradient><linearGradient gradientUnits="objectBoundingBox" id="linearGradient-14" node-id="45" spreadMethod="pad" x1="1" x2="0" y1="0.50009936" y2="0.50009936"><stop offset="0" stop-color="#3d4757"/><stop offset="1" stop-color="#3d4757"/></linearGradient><linearGradient gradientUnits="objectBoundingBox" id="linearGradient-15" node-id="48" spreadMethod="pad" x1="0.34332338" x2="0.5" y1="0.1298583" y2="1"><stop offset="0" stop-color="#adb5c0"/><stop offset="1" stop-color="#adb5c0"/></linearGradient></defs><g node-id="178"><path d="M 233.00 122.12 L 232.65 126.31 L 231.68 130.39 L 230.06 134.42 L 227.75 138.41 L 225.01 142.05 L 221.70 145.62 L 217.76 149.12 L 213.13 152.56 L 208.37 155.57 L 203.09 158.43 L 197.26 161.16 L 190.83 163.72 L 182.18 166.57 L 172.77 169.02 L 162.56 171.04 L 152.25 172.46 L 141.41 173.35 L 130.00 173.66 L 118.59 173.35 L 107.75 172.46 L 97.44 171.04 L 87.23 169.02 L 77.82 166.57 L 69.17 163.72 L 62.74 161.16 L 56.91 158.43 L 51.63 155.57 L 46.87 152.56 L 42.24 149.12 L 38.30 145.62 L 34.99 142.05 L 32.25 138.41 L 29.94 134.42 L 28.32 130.39 L 27.35 126.31 L 27.00 122.12 L 27.35 117.92 L 28.32 113.84 L 29.94 109.82 L 32.25 105.82 L 34.99 102.18 L 38.30 98.61 L 42.24 95.11 L 46.87 91.67 L 51.63 88.67 L 56.91 85.80 L 62.74 83.08 L 69.17 80.51 L 77.82 77.66 L 87.23 75.21 L 97.44 73.20 L 107.75 71.77 L 118.59 70.89 L 130.00 70.57 L 141.41 70.89 L 152.25 71.77 L 162.56 73.20 L 172.77 75.21 L 182.18 77.66 L 190.83 80.51 L 197.26 83.08 L 203.09 85.80 L 208.37 88.67 L 213.13 91.67 L 217.76 95.11 L 221.70 98.61 L 225.01 102.18 L 227.75 105.82 L 230.06 109.82 L 231.68 113.84 L 232.65 117.92 L 233.00 122.12 Z" fill="url(#linearGradient-1)" fill-rule="nonzero" group-id="1" id="背景" node-id="53" stroke="none" target-height="103.094795" target-width="206" target-x="27" target-y="70.568565"/><g node-id="179"><g node-id="180"><path d="M 211.00 104.50 L 210.67 105.24 L 209.48 106.12 L 206.69 107.19 L 201.99 108.32 L 194.70 109.52 L 186.59 110.48 L 176.40 111.36 L 165.59 112.04 L 153.21 112.57 L 140.38 112.89 L 126.50 113.00 L 112.62 112.89 L 99.79 112.57 L 87.41 112.04 L 76.60 111.36 L 66.41 110.48 L 58.30 109.52 L 51.01 108.32 L 46.31 107.19 L 43.52 106.12 L 42.33 105.24 L 42.00 104.50 L 42.33 103.76 L 43.52 102.88 L 46.31 101.81 L 51.01 100.68 L 58.30 99.48 L 66.41 98.52 L 76.60 97.64 L 87.41 96.96 L 99.79 96.43 L 112.62 96.11 L 126.50 96.00 L 140.38 96.11 L 153.21 96.43 L 165.59 96.96 L 176.40 97.64 L 186.59 98.52 L 194.70 99.48 L 201.99 100.68 L 206.69 101.81 L 209.48 102.88 L 210.67 103.76 L 211.00 104.50 Z" fill="url(#radialGradient-2)" fill-opacity="0.36" fill-rule="nonzero" group-id="1,2,3" id="椭圆形" node-id="55" stroke="none" target-height="17" target-width="169" target-x="42" target-y="96"/></g><g node-id="181"><g node-id="185"><path d="M 101.14 5.00 L 160.86 5.00 L 162.53 5.24 L 163.96 5.83 L 165.20 6.80 L 166.17 8.04 L 166.76 9.47 L 167.00 11.14 L 167.00 98.86 L 166.76 100.53 L 166.17 101.96 L 165.20 103.20 L 163.96 104.17 L 162.53 104.76 L 160.86 105.00 L 101.14 105.00 L 99.47 104.76 L 98.04 104.17 L 96.80 103.20 L 95.83 101.96 L 95.24 100.53 L 95.00 98.86 L 95.00 11.14 L 95.24 9.47 L 95.83 8.04 L 96.80 6.80 L 98.04 5.83 L 99.47 5.24 L 101.14 5.00 Z" fill="url(#linearGradient-3)" fill-rule="nonzero" group-id="1,2,4,8" id="矩形" node-id="58" stroke="none" target-height="100" target-width="72" target-x="95" target-y="5"/><path d="M 104.19 5.00 L 165.81 5.00 L 167.22 5.20 L 168.43 5.70 L 169.48 6.52 L 170.30 7.57 L 170.80 8.78 L 171.00 10.19 L 171.00 99.81 L 170.80 101.22 L 170.30 102.43 L 169.48 103.48 L 168.43 104.30 L 167.22 104.80 L 165.81 105.00 L 104.19 105.00 L 102.78 104.80 L 101.57 104.30 L 100.52 103.48 L 99.70 102.43 L 99.20 101.22 L 99.00 99.81 L 99.00 10.19 L 99.20 8.78 L 99.70 7.57 L 100.52 6.52 L 101.57 5.70 L 102.78 5.20 L 104.19 5.00 Z" fill="url(#linearGradient-4)" fill-rule="nonzero" group-id="1,2,4,8" id="矩形" node-id="59" stroke="none" target-height="100" target-width="72" target-x="99" target-y="5"/><path d="M 120.00 2.00 L 151.00 2.00 L 152.18 2.24 L 153.12 2.88 L 153.76 3.82 L 154.00 5.00 L 154.00 6.00 L 153.76 7.18 L 153.12 8.12 L 152.18 8.76 L 151.00 9.00 L 120.00 9.00 L 118.82 8.76 L 117.88 8.12 L 117.24 7.18 L 117.00 6.00 L 117.00 5.00 L 117.24 3.82 L 117.88 2.88 L 118.82 2.24 L 120.00 2.00 Z" fill="url(#linearGradient-5)" fill-rule="nonzero" group-id="1,2,4,8" id="矩形" node-id="60" stroke="none" target-height="7" target-width="37" target-x="117" target-y="2"/><path d="M 124.50 0.00 L 145.50 0.00 L 146.48 0.20 L 147.27 0.73 L 147.80 1.52 L 148.00 2.50 L 148.00 2.50 L 147.80 3.48 L 147.27 4.27 L 146.48 4.80 L 145.50 5.00 L 124.50 5.00 L 123.52 4.80 L 122.73 4.27 L 122.20 3.48 L 122.00 2.50 L 122.00 2.50 L 122.20 1.52 L 122.73 0.73 L 123.52 0.20 L 124.50 0.00 Z" fill="url(#linearGradient-6)" fill-rule="nonzero" group-id="1,2,4,8" id="矩形" node-id="61" stroke="none" target-height="5" target-width="26" target-x="122" target-y="0"/></g><path d="M 113.50 37.00 L 134.50 37.00 L 135.48 37.20 L 136.27 37.73 L 136.80 38.52 L 137.00 39.50 L 137.00 39.50 L 136.80 40.48 L 136.27 41.27 L 135.48 41.80 L 134.50 42.00 L 113.50 42.00 L 112.52 41.80 L 111.73 41.27 L 111.20 40.48 L 111.00 39.50 L 111.00 39.50 L 111.20 38.52 L 111.73 37.73 L 112.52 37.20 L 113.50 37.00 Z" fill="url(#linearGradient-7)" fill-rule="nonzero" group-id="1,2,4" id="矩形" node-id="62" stroke="none" target-height="5" target-width="26" target-x="111" target-y="37"/><path d="M 113.50 53.00 L 156.50 53.00 L 157.48 53.20 L 158.27 53.73 L 158.80 54.52 L 159.00 55.50 L 159.00 55.50 L 158.80 56.48 L 158.27 57.27 L 157.48 57.80 L 156.50 58.00 L 113.50 58.00 L 112.52 57.80 L 111.73 57.27 L 111.20 56.48 L 111.00 55.50 L 111.00 55.50 L 111.20 54.52 L 111.73 53.73 L 112.52 53.20 L 113.50 53.00 Z" fill="url(#linearGradient-8)" fill-rule="nonzero" group-id="1,2,4" id="矩形" node-id="63" stroke="none" target-height="5" target-width="48" target-x="111" target-y="53"/><path d="M 113.50 68.00 L 156.50 68.00 L 157.48 68.20 L 158.27 68.73 L 158.80 69.52 L 159.00 70.50 L 159.00 70.50 L 158.80 71.48 L 158.27 72.27 L 157.48 72.80 L 156.50 73.00 L 113.50 73.00 L 112.52 72.80 L 111.73 72.27 L 111.20 71.48 L 111.00 70.50 L 111.00 70.50 L 111.20 69.52 L 111.73 68.73 L 112.52 68.20 L 113.50 68.00 Z" fill="url(#linearGradient-8)" fill-rule="nonzero" group-id="1,2,4" id="矩形" node-id="64" stroke="none" target-height="5" target-width="48" target-x="111" target-y="68"/></g><path d="M 112.57 16.00 L 159.43 16.00 L 161.21 16.25 L 162.74 16.89 L 164.08 17.92 L 165.11 19.26 L 165.75 20.79 L 166.00 22.57 L 166.00 91.43 L 165.75 93.21 L 165.11 94.74 L 164.08 96.08 L 162.74 97.11 L 161.21 97.75 L 159.43 98.00 L 112.57 98.00 L 110.79 97.75 L 109.26 97.11 L 107.92 96.08 L 106.89 94.74 L 106.25 93.21 L 106.00 91.43 L 106.00 22.57 L 106.25 20.79 L 106.89 19.26 L 107.92 17.92 L 109.26 16.89 L 110.79 16.25 L 112.57 16.00 Z" fill="url(#linearGradient-9)" fill-rule="nonzero" group-id="1,2" id="矩形" node-id="65" stroke="none" target-height="82" target-width="60" target-x="106" target-y="16"/><path d="M 219.00 79.00 L 218.81 81.01 L 218.31 82.85 L 217.50 84.55 L 216.41 86.10 L 215.10 87.40 L 213.55 88.50 L 211.85 89.31 L 210.01 89.81 L 208.00 90.00 L 205.99 89.81 L 204.15 89.31 L 202.45 88.50 L 200.90 87.40 L 199.59 86.10 L 198.50 84.55 L 197.69 82.85 L 197.19 81.01 L 197.00 79.00 L 197.19 76.99 L 197.69 75.15 L 198.50 73.45 L 199.59 71.90 L 200.90 70.59 L 202.45 69.50 L 204.15 68.69 L 205.99 68.19 L 208.00 68.00 L 210.01 68.19 L 211.85 68.69 L 213.55 69.50 L 215.10 70.59 L 216.40 71.90 L 217.50 73.45 L 218.31 75.15 L 218.81 76.99 L 219.00 79.00 Z" fill="url(#radialGradient-10)" fill-opacity="0.4" fill-rule="nonzero" group-id="1,2,5" id="椭圆形" node-id="66" stroke="none" target-height="22" target-width="22" target-x="197" target-y="68"/><path d="M 80.00 46.00 L 79.77 47.63 L 79.19 49.03 L 78.24 50.24 L 77.03 51.19 L 75.63 51.77 L 74.00 52.00 L 72.37 51.77 L 70.97 51.19 L 69.76 50.24 L 68.81 49.03 L 68.23 47.63 L 68.00 46.00 L 68.23 44.37 L 68.81 42.97 L 69.76 41.76 L 70.97 40.81 L 72.37 40.23 L 74.00 40.00 L 75.63 40.23 L 77.03 40.81 L 78.24 41.76 L 79.19 42.97 L 79.77 44.37 L 80.00 46.00 Z" fill="url(#radialGradient-11)" fill-opacity="0.66" fill-rule="nonzero" group-id="1,2,6" id="椭圆形" node-id="67" stroke="none" target-height="12" target-width="12" target-x="68" target-y="40"/><path d="M 137.92 50.57 L 137.92 50.57 L 137.95 49.94 L 137.99 49.61 L 138.11 49.23 L 138.21 49.01 L 138.27 49.01 L 138.47 49.12 L 138.59 49.45 L 138.86 50.46 L 139.11 50.91 L 139.49 51.12 L 139.73 51.99 L 139.98 53.46 L 139.97 53.96 L 139.83 53.94 L 138.58 53.12 L 137.11 52.80 L 135.51 53.01 L 133.78 53.42 L 134.05 53.13 L 135.33 52.49 L 135.78 52.33 L 136.01 52.24 L 135.76 52.27 L 135.29 52.36 L 134.19 52.59 L 133.30 52.76 L 133.12 52.66 L 133.63 52.35 L 134.33 52.06 L 135.10 51.81 L 135.59 51.64 L 135.74 51.58 L 135.60 51.58 L 134.86 51.63 L 133.63 51.71 L 133.00 51.70 L 133.22 51.53 L 133.55 51.37 L 135.18 51.09 L 135.74 51.02 L 135.95 50.97 L 135.81 50.97 L 135.44 50.97 L 134.09 50.97 L 133.70 50.99 L 133.43 50.97 L 133.61 50.84 L 134.35 50.68 L 135.58 50.55 L 137.92 50.57 L 137.92 50.57 Z" fill="#ffe3cb" fill-rule="evenodd" group-id="1,2,7" id="路径" node-id="69" stroke="none" target-height="4.9519577" target-width="6.9824524" target-x="133.00055" target-y="49.00602"/><path d="M 153.99 48.00 L 153.05 49.01 L 152.00 50.43 L 150.09 53.53 L 148.66 56.20 L 148.10 57.33 L 147.17 56.56 L 145.14 55.04 L 140.43 51.62 L 139.15 50.92 L 138.45 50.83 L 138.05 51.08 L 138.06 51.60 L 138.69 52.76 L 141.06 55.51 L 144.29 58.40 L 146.00 59.64 L 147.48 60.50 L 148.89 60.98 L 149.76 60.88 L 153.07 57.09 L 155.85 53.75 L 156.72 52.18 L 157.00 50.86 L 156.80 50.24 L 156.22 49.55 L 154.77 48.46 L 153.99 48.00 Z" fill="#ffe3cb" fill-rule="evenodd" group-id="1,2,7" id="路径" node-id="70" stroke="none" target-height="12.975441" target-width="18.946182" target-x="138.05382" target-y="48"/><path d="M 178.97 50.83 L 178.97 50.83 L 178.86 49.70 L 178.71 49.27 L 178.60 49.01 L 178.54 49.01 L 178.35 49.13 L 178.24 49.54 L 178.02 50.75 L 177.79 51.31 L 177.41 51.57 L 177.19 52.62 L 177.00 54.36 L 177.06 54.95 L 177.21 54.93 L 178.44 53.88 L 179.90 53.44 L 181.53 53.59 L 183.30 53.99 L 183.01 53.66 L 181.68 52.96 L 181.21 52.80 L 180.98 52.70 L 181.24 52.70 L 181.72 52.78 L 182.83 52.98 L 183.74 53.15 L 183.92 53.02 L 183.39 52.67 L 182.68 52.37 L 181.88 52.12 L 181.38 51.95 L 181.22 51.89 L 181.37 51.89 L 182.12 51.91 L 183.37 51.93 L 184.00 51.89 L 183.42 51.52 L 181.76 51.27 L 181.20 51.22 L 180.98 51.22 L 181.12 51.22 L 181.50 51.22 L 182.86 51.12 L 183.26 51.11 L 183.53 51.06 L 183.32 50.91 L 182.57 50.76 L 181.36 50.68 L 178.97 50.83 Z" fill="#ffe3cb" fill-rule="evenodd" group-id="1,2,7" id="路径" node-id="71" stroke="none" target-height="5.94751" target-width="6.9962006" target-x="177.00325" target-y="49.0065"/><path d="M 163.61 48.00 L 164.57 48.97 L 165.62 50.40 L 167.45 53.62 L 168.79 56.43 L 169.31 57.64 L 170.28 56.98 L 172.27 55.52 L 175.46 52.88 L 177.70 51.15 L 178.49 50.88 L 178.94 51.14 L 178.94 51.66 L 178.28 52.87 L 175.85 55.77 L 172.60 58.75 L 170.91 59.98 L 169.53 60.73 L 168.62 60.99 L 168.02 60.93 L 167.61 60.61 L 164.16 57.26 L 161.27 54.42 L 160.34 53.05 L 160.00 51.81 L 160.20 51.18 L 160.89 50.29 L 162.65 48.72 L 163.61 48.00 Z" fill="#ffe3cb" fill-rule="evenodd" group-id="1,2,7" id="路径" node-id="72" stroke="none" target-height="12.992584" target-width="18.940979" target-x="160.00185" target-y="48"/><path d="M 157.79 48.95 L 158.60 48.63 L 159.26 48.06 L 159.74 47.30 L 160.00 46.37 L 159.20 43.16 L 158.94 42.55 L 158.46 42.16 L 157.83 42.00 L 157.10 42.11 L 156.50 42.52 L 156.15 43.16 L 156.01 43.90 L 156.04 44.64 L 156.32 48.09 L 156.55 48.67 L 156.90 48.93 L 157.79 48.95 Z" fill="url(#linearGradient-12)" fill-rule="nonzero" group-id="1,2,7" id="路径" node-id="73" stroke="none" target-height="6.9509277" target-width="3.9938354" target-x="156.00616" target-y="42.00196"/><path d="M 160.35 40.01 L 160.26 38.88 L 159.99 37.88 L 159.49 37.04 L 158.75 36.45 L 157.44 36.04 L 156.13 36.05 L 154.87 36.39 L 153.76 36.94 L 152.84 37.66 L 152.28 38.36 L 152.05 39.04 L 152.01 40.11 L 152.20 41.25 L 152.63 42.53 L 153.58 44.20 L 154.90 45.59 L 155.77 45.96 L 156.60 45.97 L 157.42 45.73 L 158.15 45.32 L 159.24 44.37 L 159.77 43.42 L 160.10 42.38 L 160.66 42.06 L 160.95 41.48 L 160.91 40.64 L 160.35 40.01 L 160.35 40.01 Z" fill="url(#linearGradient-13)" fill-rule="nonzero" group-id="1,2,7" id="路径" node-id="74" stroke="none" target-height="9.928879" target-width="8.930466" target-x="152.01457" target-y="36.040813"/><path d="M 160.29 43.00 L 160.68 40.49 L 160.52 40.12 L 160.24 39.88 L 159.51 39.95 L 158.50 38.45 L 157.54 37.80 L 156.23 37.51 L 154.91 37.69 L 153.63 38.60 L 152.57 39.80 L 152.11 38.89 L 152.01 37.84 L 152.34 36.49 L 153.19 35.47 L 154.76 34.55 L 156.48 34.09 L 157.48 34.00 L 158.52 34.16 L 159.49 34.55 L 160.29 35.19 L 161.13 36.29 L 161.65 37.51 L 161.92 38.82 L 162.00 40.22 L 161.85 41.23 L 161.47 42.04 L 160.90 42.67 L 160.29 43.00 Z" fill="#3d4757" fill-rule="evenodd" group-id="1,2,7" id="头发" node-id="75" stroke="none" target-height="8.99794" target-width="9.988785" target-x="152.01122" target-y="34.00206"/><path d="M 152.04 69.00 L 165.35 69.79 L 165.85 72.76 L 166.00 76.75 L 165.68 82.00 L 163.80 104.96 L 163.80 110.04 L 163.15 110.75 L 162.12 111.00 L 160.99 110.77 L 159.90 110.04 L 160.13 107.24 L 159.90 104.96 L 159.42 101.56 L 159.02 97.36 L 158.85 94.78 L 158.85 82.00 L 158.35 80.55 L 157.28 82.00 L 156.48 91.52 L 156.32 94.78 L 156.49 96.52 L 156.90 98.28 L 157.85 101.58 L 158.29 103.85 L 158.73 107.45 L 155.61 108.10 L 151.53 97.13 L 151.00 95.39 L 151.00 93.44 L 151.00 89.57 L 151.00 85.43 L 151.00 82.64 L 151.56 71.46 L 152.04 69.00 Z" fill="url(#linearGradient-14)" fill-rule="evenodd" group-id="1,2,7" id="路径-3" node-id="76" stroke="none" target-height="42" target-width="14.995728" target-x="151" target-y="69"/><path d="M 169.00 55.45 L 168.45 54.29 L 166.96 51.67 L 164.86 48.84 L 163.65 47.71 L 162.51 47.07 L 162.36 46.97 L 160.98 46.41 L 159.56 46.00 L 159.13 46.84 L 158.61 47.55 L 157.88 48.22 L 157.00 48.58 L 155.88 48.45 L 155.57 48.15 L 155.42 47.71 L 155.44 46.79 L 155.53 46.34 L 155.46 46.38 L 154.24 46.57 L 153.02 47.08 L 151.92 47.84 L 151.03 48.75 L 149.74 50.68 L 148.74 52.76 L 148.00 54.99 L 149.54 56.98 L 151.26 58.80 L 151.13 61.90 L 150.98 65.79 L 150.83 69.36 L 150.71 71.48 L 153.11 72.27 L 155.50 72.77 L 157.90 72.97 L 161.54 72.92 L 165.16 72.57 L 165.51 72.44 L 165.66 72.11 L 165.63 71.68 L 164.96 65.26 L 164.69 58.80 L 165.28 59.70 L 165.51 59.90 L 166.20 59.14 L 167.67 57.39 L 169.00 55.45 Z" fill="url(#linearGradient-15)" fill-rule="nonzero" group-id="1,2,7" id="路径" node-id="77" stroke="none" target-height="26.973907" target-width="20.999252" target-x="148" target-y="46"/><path d="M 155.28 108.69 L 158.23 108.00 L 159.64 108.69 L 160.00 110.31 L 159.81 111.24 L 154.90 115.00 L 151.31 115.00 L 151.00 113.62 L 153.94 111.50 L 155.28 109.50 Z" fill="#3d4757" fill-rule="evenodd" group-id="1,2,7" id="路径-4" node-id="78" stroke="none" target-height="7" target-width="9" target-x="151" target-y="108"/><path d="M 160.00 110.00 L 163.35 110.23 L 164.00 111.35 L 164.00 114.15 L 159.66 116.87 L 157.53 117.00 L 156.70 116.87 L 156.32 116.54 L 156.08 116.02 L 156.00 115.44 L 156.08 115.01 L 156.50 114.43 L 157.97 113.01 L 160.00 111.08 L 160.00 110.00 Z" fill="#3d4757" fill-rule="evenodd" group-id="1,2,7" id="路径-5" node-id="79" stroke="none" target-height="6.996643" target-width="7.999771" target-x="156.00023" target-y="110"/><path d="M 152.04 63.00 L 152.34 63.00 L 152.34 63.00 L 152.34 63.00 L 152.34 63.00 L 152.34 63.00 L 152.34 63.00 L 152.34 63.00 L 152.34 63.00 L 152.34 63.00 L 152.34 63.00 L 152.34 63.00 L 152.34 63.17 L 152.34 63.29 L 152.34 63.96 L 152.34 64.01 L 152.34 64.28 L 152.34 64.35 L 152.34 64.51 L 152.34 64.51 L 152.34 64.51 L 152.34 64.51 L 152.34 64.51 L 152.34 64.51 L 152.96 64.51 L 152.96 64.51 L 152.96 64.51 L 152.96 64.51 L 152.96 64.51 L 152.96 64.51 L 152.96 64.51 L 152.96 64.51 L 152.96 64.51 L 152.96 64.51 L 152.96 65.00 L 152.96 65.00 L 152.96 65.00 L 152.96 65.00 L 152.96 65.00 L 152.96 65.00 L 152.96 65.00 L 152.96 65.00 L 152.96 65.00 L 152.96 65.00 L 152.89 65.00 L 152.89 65.00 L 152.82 65.00 L 152.82 65.00 L 152.82 65.00 L 152.78 65.00 L 152.78 65.00 L 152.78 65.00 L 152.78 65.00 L 152.78 65.00 L 152.78 65.00 L 152.78 65.00 L 152.72 65.00 L 152.11 65.00 L 152.11 65.00 L 152.11 65.00 L 152.11 65.00 L 152.11 65.00 L 152.11 65.00 L 152.11 65.00 L 152.11 65.00 L 152.11 65.00 L 152.11 65.00 L 152.11 64.94 L 152.11 64.94 L 152.11 64.90 L 152.11 64.85 L 152.11 64.81 L 152.11 64.76 L 152.11 64.71 L 152.11 64.66 L 152.11 64.66 L 152.11 64.66 L 152.11 64.66 L 152.11 64.66 L 152.11 64.66 L 152.11 64.66 L 152.11 64.66 L 152.11 64.04 L 152.11 64.00 L 152.11 63.95 L 152.11 63.88 L 152.11 63.71 L 152.11 63.71 L 152.11 63.71 L 152.11 63.71 L 152.11 63.53 L 152.11 63.43 L 152.11 63.07 L 152.11 63.07 L 152.11 63.07 L 152.11 63.07 L 152.11 63.07 L 152.11 63.07 L 152.11 63.07 L 152.11 63.07 L 152.11 63.07 L 152.11 63.07 L 152.11 63.07 L 152.41 63.07 Z" fill="#ffffff" fill-rule="evenodd" group-id="1,2" id="路径" node-id="80" stroke="none" target-height="2" target-width="0.91000366" target-x="152.045" target-y="63"/></g></g><text align="center" editable="true" ellipsis="false" fill="#000000" fill-opacity="0.65" flags="1" font-family="'Noto Sans CJK SC'" font-size="14" font-stretch="normal" font-style="normal" font-weight="400" height="20.720001" id="暂无错误项" letter-spacing="0" node-id="81" stroke="none" target-x="95" target-y="123.76" vertical-align="center" width="70" x="95" xml:space="preserve" y="140"></text></svg>
