<svg xmlns="http://www.w3.org/2000/svg" fill="none" viewBox="0 0 265 259"><g filter="url(#a)" opacity=".6"><path fill-opacity=".01" fill="#005EEB" d="M211.963 117.693c0 18.477-6.234 35.849-16.624 49.56-5.755 7.492-12.628 14.033-20.62 19.12-12.788 8.456-28.292 13.236-44.756 13.236-45.236.153-82-36.493-82-81.916 0-45.27 36.605-82.083 82-82.083 16.464 0 31.809 4.78 44.756 13.221 7.992 5.102 14.865 11.643 20.62 19.134 10.39 13.865 16.624 31.07 16.624 49.728Z"/></g><path fill="#2D5887" d="M84.201 148.579h-.587c-.44 0-.733-.426-.733-1.027 0-.627.293-1.027.733-1.027h.587c.44 0 .734.4.734 1.027 0 .601-.294 1.027-.734 1.027ZM84.201 152.687h-.587c-.44 0-.733-.426-.733-1.027 0-.627.293-1.027.733-1.027h.587c.44 0 .734.4.734 1.027 0 .601-.294 1.027-.734 1.027ZM84.201 156.794h-.587c-.44 0-.733-.4-.733-1.027 0-.626.293-1.027.733-1.027h.587c.44 0 .734.401.734 1.027 0 .627-.294 1.027-.734 1.027Z"/><path fill="url(#b)" d="M161.959 156.794h-49.295c-.617 0-1.028-.4-1.028-1.027 0-.626.411-1.027 1.028-1.027h49.295c.616 0 1.027.401 1.027 1.027 0 .627-.411 1.027-1.027 1.027Z"/><path fill="#2D5887" d="M129.068 148.579h-22.541c-.63 0-1.052-.426-1.052-1.027 0-.627.422-1.027 1.052-1.027h22.541c.632 0 1.054.4 1.054 1.027 0 .601-.422 1.027-1.054 1.027ZM145.532 152.687h-39.035c-.614 0-1.022-.426-1.022-1.027 0-.627.408-1.027 1.022-1.027h39.035c.613 0 1.022.4 1.022 1.027-.204.601-.613 1.027-1.022 1.027Z"/><path fill="#fff" d="M161.919 152.687h-14.298c-.64 0-1.067-.426-1.067-1.027 0-.627.427-1.027 1.067-1.027h14.298c.641 0 1.067.4 1.067 1.027 0 .601-.426 1.027-1.067 1.027Z"/><path fill="url(#c)" d="M170.369 152.687h-4.497c-.5 0-.832-.426-.832-1.027 0-.627.332-1.027.832-1.027h4.497c.499 0 .833.4.833 1.027 0 .601-.334 1.027-.833 1.027Z"/><path stroke-linejoin="round" stroke-linecap="round" stroke-width="2" stroke="#D6DEE8" d="M47.963 214.305h186.912" data-follow-stroke="#D6DEE8"/><path fill="#fff" d="M179.418 142.417v71.889H77.587c-4.017 0-7.03-3.231-7.03-7.063v-64.826h108.861Z"/><path fill="#DAE1ED" d="M220.497 142.417v64.826c0 4.038-3.406 7.063-7.45 7.063h-33.63v-71.889h41.08Z"/><path fill="#E7EAF4" d="M220.497 142.417v64.826c0 4.038-3.406 7.063-7.45 7.063h-33.63v-71.889h41.08Z"/><path fill="#C5CDDB" d="m109.583 142.417 21.436-34.918h110.018l-22.044 34.918h-109.41Z"/><path fill="url(#d)" d="m109.583 142.417 21.436-34.918h110.018l-22.044 34.918h-109.41Z"/><path fill-opacity=".02" fill="#005EEB" d="m109.583 142.417 21.436-34.918h110.018l-22.044 34.918h-109.41Z"/><path fill="url(#e)" d="M220.497 142.615v36.773h-29.954c-2.782 0-4.708-1.709-5.135-4.187l-5.991-32.784 41.08.198Z" opacity=".3"/><path fill="url(#f)" d="M219.029 142.417h-39.612l20.114 29.713c1.437 1.975 3.694 3.15 5.952 3.15h30.786c2.053 0 3.49-2.363 2.257-3.938l-19.497-28.925Z"/><path fill="#E7EAF4" d="m179.417 142.417-21.403-34.918H47.964l22.212 34.918h109.241Z"/><path fill="#F6F8FB" d="M124.409 163.566H80.832c-1.017 0-1.832-.902-1.832-2.054 0-1.136.814-2.054 1.832-2.054h43.577c1.018 0 1.832.918 1.832 2.054-.203 1.152-.814 2.054-1.832 2.054Z"/><rect fill="#DAE1ED" rx="1" height="2" width="25" y="151.458" x="90"/><rect fill="#DAE1ED" rx="1" height="2" width="25" y="206.457" x="147"/><rect fill="#F6F8FB" rx="4" height="8" width="8" y="148.458" x="79"/><path fill="#E7EAF4" d="m96 106.241-.28-.414.28.414Zm0-22.783.386.318-.386-.318Zm68.947-53.764-4.507 3.608 5.378 2.1-.871-5.708Zm-32.564 87.285a.5.5 0 0 0 .457.89l-.457-.89Zm-1.363 1.786a.5.5 0 1 0-.427-.904l.427.904Zm-2.244-.081a.5.5 0 0 0 .399.917l-.399-.917Zm-1.472 1.696a.499.499 0 1 0-.37-.929l.37.929Zm-2.235-.216a.5.5 0 1 0 .343.939l-.343-.939Zm-1.568 1.608a.5.5 0 1 0-.317-.949l.317.949Zm-2.221-.341a.5.5 0 1 0 .291.956l-.291-.956Zm-1.654 1.519a.5.5 0 1 0-.265-.964l.265.964Zm-2.195-.461a.5.5 0 0 0 .239.971l-.239-.971Zm-1.734 1.43a.5.5 0 0 0-.214-.976l.214.976Zm-2.173-.575a.5.5 0 1 0 .187.982l-.187-.982Zm-1.805 1.335a.5.5 0 0 0-.161-.987l.161.987Zm-2.131-.693a.5.5 0 1 0 .133.991l-.133-.991Zm-1.882 1.233a.5.5 0 1 0-.105-.994l.105.994Zm-2.096-.815a.501.501 0 0 0 .074.997l-.074-.997Zm-1.951 1.116a.5.5 0 0 0-.041-.999l.041.999Zm-2.032-.951a.5.5 0 1 0 .006 1l-.006-1Zm-2.021.972a.5.5 0 1 0 .034-.999l-.034.999Zm-1.947-1.111a.5.5 0 1 0-.08.997l.08-.997Zm-2.105.781a.5.5 0 0 0 .135-.991l-.135.991Zm-1.817-1.32a.5.5 0 1 0-.201.979l.2-.979Zm-2.202.479a.5.5 0 0 0 .288-.958l-.288.958Zm-1.545-1.629a.5.5 0 0 0-.406.914l.406-.914Zm-2.235-.103a.5.5 0 1 0 .573-.819l-.573.819Zm-.772-2.088a.5.5 0 0 0-.802.597l.802-.597Zm-1.697-1.423a.5.5 0 0 0 .983-.181l-.983.181Zm1.056-1.971a.5.5 0 1 0-.973-.233l.973.233Zm-.198-2.201a.5.5 0 1 0 .88.474l-.88-.474Zm1.937-1.141a.5.5 0 1 0-.795-.607l.795.607Zm.542-2.172a.499.499 0 1 0 .728.685l-.728-.685Zm2.13-.695a.5.5 0 1 0-.677-.736l.676.736Zm.864-2.073a.5.5 0 0 0 .635.772l-.635-.772Zm2.223-.477a.5.5 0 1 0-.601-.799l.601.799Zm1.011-1.971a.5.5 0 0 0 .575.819l-.575-.819Zm2.256-.346a.5.5 0 0 0-.58-.814l.58.814Zm.966-1.973a.501.501 0 0 0 .618.787l-.618-.787Zm2.144-.473a.501.501 0 0 0-.656-.755l.656.755Zm.775-2.065a.5.5 0 1 0 .694.72l-.694-.72Zm2.089-.703a.5.5 0 0 0-.733-.68l.733.68Zm.54-2.135a.5.5 0 0 0 .771.636l-.771-.636Zm1.99-.94a.5.5 0 1 0-.81-.587l.81.587Zm.269-2.184a.5.5 0 1 0 .847.532l-.847-.532Zm1.847-1.195a.5.5 0 1 0-.882-.47l.882.47Zm-.046-2.196a.5.5 0 0 0 .916.4l-.916-.4Zm1.642-1.468a.5.5 0 1 0-.947-.322l.947.322Zm-.414-2.166a.5.5 0 1 0 .973.231l-.973-.23Zm1.333-1.749a.5.5 0 1 0-.992-.124l.992.124Zm-.874-2.017a.5.5 0 1 0 1-.004l-1 .004Zm.834-2.035a.5.5 0 0 0-.987.166l.987-.166Zm-1.479-1.62a.5.5 0 1 0 .926-.375l-.926.376Zm-.146-2.191a.5.5 0 0 0-.765.644l.765-.644Zm-2.128-.422a.5.5 0 1 0 .425-.905l-.425.905Zm-1.687-1.36a.5.5 0 1 0 .003 1l-.003-1Zm-1.76 1.313a.5.5 0 0 0-.319-.948l.319.948Zm-2.194-.074a.5.5 0 0 0 .508.861l-.508-.861Zm-1.036 1.935a.5.5 0 0 0-.623-.782l.623.782Zm-2.123.549a.5.5 0 1 0 .699.715l-.699-.715Zm-.622 2.11a.5.5 0 1 0-.75-.66l.75.66Zm-2.087.986a.5.5 0 0 0 .807.59l-.807-.59Zm-.21 2.237a.5.5 0 0 0-.898-.44l.898.44Zm-1.518 1.675a.5.5 0 1 0 .998.058l-.998-.058Zm1.509 1.525a.5.5 0 1 0-.712.703l.712-.703Zm1.31 1.764a.5.5 0 0 0 .247-.97l-.248.97Zm2.137-.735a.5.5 0 0 0-.025 1l.025-1Zm2.075.91a.5.5 0 1 0-.1-.994l.1.995Zm1.874-1.28a.5.5 0 1 0 .182.983l-.182-.983Zm2.2.542a.5.5 0 1 0-.242-.97l.242.97Zm1.701-1.508a.5.5 0 1 0 .29.957l-.29-.957Zm2.261.313a.499.499 0 1 0-.329-.944l.329.944Zm1.556-1.642a.499.499 0 1 0 .363.931l-.363-.931Zm2.254.156a.5.5 0 1 0-.393-.919l.393.92Zm1.467-1.75a.5.5 0 1 0 .422.907l-.422-.907Zm2.26.022a.5.5 0 1 0-.446-.895l.446.895Zm1.352-1.82a.5.5 0 0 0 .469.883l-.469-.883Zm2.278-.107a.5.5 0 0 0-.491-.87l.491.87Zm1.249-1.878a.5.5 0 0 0 .511.86l-.511-.86Zm2.278-.22a.5.5 0 1 0-.53-.847l.53.848Zm1.156-1.929a.5.5 0 0 0 .549.836l-.549-.836Zm2.263-.317a.5.5 0 1 0-.567-.824l.567.824Zm1.076-1.98a.5.5 0 0 0 .584.812l-.584-.812Zm2.247-.411a.5.5 0 1 0-.601-.8l.601.8Zm.994-2.023a.5.5 0 1 0 .616.787l-.616-.787Zm2.229-.504a.5.5 0 1 0-.632-.774l.632.774Zm.91-2.06a.501.501 0 0 0 .648.762l-.648-.762Zm2.205-.588a.5.5 0 1 0-.663-.749l.663.75Zm.833-2.098a.5.5 0 1 0 .677.736l-.677-.736Zm2.174-.669a.5.5 0 1 0-.691-.723l.691.723Zm.757-2.135a.5.5 0 1 0 .705.71l-.705-.71Zm2.142-.746a.5.5 0 0 0-.718-.696l.718.696Zm.681-2.17a.5.5 0 0 0 .732.682l-.732-.682Zm2.107-.822a.5.5 0 0 0-.745-.668l.745.668Zm.605-2.202a.5.5 0 1 0 .757.653l-.757-.653Zm2.068-.896a.499.499 0 1 0-.769-.64l.769.64Zm.515-2.215a.5.5 0 0 0 .781.624l-.781-.624Zm2.042-.986a.5.5 0 0 0-.793-.609l.793.61Zm.424-2.224a.5.5 0 1 0 .805.594l-.805-.594Zm2.013-1.075a.5.5 0 1 0-.815-.58l.815.58Zm.334-2.23a.5.5 0 1 0 .826.563l-.826-.563Zm1.966-1.142a.5.5 0 0 0-.837-.548l.837.548Zm.258-2.255a.5.5 0 0 0 .847.532l-.847-.532Zm1.915-1.204a.5.5 0 1 0-.856-.516l.856.516Zm.181-2.274a.5.5 0 0 0 .866.5l-.866-.5Zm1.866-1.27a.5.5 0 1 0-.875-.485l.875.484Zm.089-2.268a.5.5 0 1 0 .884.468l-.884-.468Zm1.829-1.36a.5.5 0 1 0-.892-.451l.892.45Zm-.001-2.256a.5.5 0 1 0 .9.435l-.9-.435Zm1.775-1.42a.5.5 0 0 0-.909-.418l.909.418Zm-.076-2.272a.5.5 0 1 0 .915.401l-.915-.4Zm1.715-1.469a.5.5 0 0 0-.923-.385l.923.385Zm-.157-2.27a.5.5 0 1 0 .93.367l-.93-.368Zm-30.844 86.046c-.292.156-.586.31-.881.462l.457.89c.3-.155.599-.311.896-.47l-.472-.882Zm-2.671 1.344c-.6.283-1.206.558-1.817.823l.399.917c.62-.269 1.235-.548 1.845-.836l-.427-.904Zm-3.659 1.59c-.618.247-1.24.485-1.865.713l.343.939a70.81 70.81 0 0 0 1.892-.723l-.37-.929Zm-3.75 1.372c-.633.212-1.268.414-1.904.608l.291.956a74.478 74.478 0 0 0 1.93-.615l-.317-.949Zm-3.823 1.163c-.644.177-1.287.345-1.93.503l.239.971a70.38 70.38 0 0 0 1.956-.51l-.265-.964Zm-3.878.957c-.655.143-1.309.277-1.959.401l.187.982a73.7 73.7 0 0 0 1.986-.407l-.214-.976Zm-3.925.749c-.662.108-1.319.206-1.97.294l.133.991a74.309 74.309 0 0 0 1.998-.298l-.161-.987Zm-3.957.533c-.671.07-1.336.13-1.991.179l.074.997c.666-.049 1.341-.11 2.022-.182l-.105-.994Zm-3.983.296c-.676.028-1.34.044-1.991.048l.006 1a58.473 58.473 0 0 0 2.026-.049l-.041-.999Zm-3.978.021c-.678-.023-1.34-.06-1.981-.112l-.08.997c.658.053 1.334.091 2.027.114l.034-.999Zm-3.951-.322a29.474 29.474 0 0 1-1.952-.329l-.201.979c.644.133 1.318.246 2.018.341l.135-.991Zm-3.866-.808a15.368 15.368 0 0 1-1.833-.671l-.406.914c.6.267 1.253.505 1.951.715l.288-.958Zm-3.495-1.593c-.557-.39-1.006-.815-1.345-1.269l-.802.597c.413.555.945 1.051 1.574 1.491l.573-.819Zm-2.059-2.873c-.1-.544-.083-1.139.073-1.79l-.973-.233c-.185.772-.211 1.509-.083 2.204l.983-.181Zm.755-3.517c.276-.513.626-1.052 1.057-1.615l-.795-.607a13.18 13.18 0 0 0-1.142 1.748l.88.474Zm2.327-3.102c.42-.447.887-.907 1.401-1.38l-.676-.736c-.53.487-1.014.964-1.453 1.431l.728.685Zm2.901-2.681a46.663 46.663 0 0 1 1.588-1.249l-.601-.799c-.574.433-1.115.858-1.623 1.276l.636.772Zm3.174-2.401c.278-.195.563-.392.855-.591l-.562-.827c-.296.201-.585.401-.868.599l.575.819Zm.855-.591c.28-.19.555-.381.826-.574l-.58-.814c-.265.188-.534.375-.808.561l.562.827Zm2.41-1.76a41.837 41.837 0 0 0 1.526-1.26l-.656-.755c-.476.413-.972.823-1.488 1.228l.618.787Zm2.995-2.605c.488-.471.952-.945 1.395-1.423l-.733-.68c-.43.464-.882.925-1.356 1.383l.694.72Zm2.706-2.922a31.66 31.66 0 0 0 1.219-1.576l-.81-.587a30.76 30.76 0 0 1-1.18 1.527l.771.636Zm2.335-3.228c.362-.578.695-1.154 1-1.727l-.882-.47a27.073 27.073 0 0 1-.965 1.665l.847.532Zm1.87-3.523c.276-.63.517-1.254.726-1.868l-.947-.322c-.199.587-.43 1.185-.695 1.79l.916.4Zm1.285-3.803c.16-.677.28-1.338.36-1.98l-.992-.124c-.076.605-.189 1.23-.341 1.873l.973.231Zm.486-4.001a12.635 12.635 0 0 0-.166-2.03l-.987.165c.098.581.15 1.207.153 1.869l1-.004Zm-.719-4.026a6.719 6.719 0 0 0-1.072-1.816l-.765.644c.359.426.666.945.911 1.547l.926-.375Zm-2.775-3.143a4.894 4.894 0 0 0-2.112-.455l.003 1a3.891 3.891 0 0 1 1.684.36l.425-.905Zm-4.191-.09a9.91 9.91 0 0 0-1.875.874l.508.861a8.92 8.92 0 0 1 1.686-.787l-.319-.948Zm-3.534 2.027c-.492.392-.992.835-1.5 1.33l.699.716c.486-.475.961-.895 1.424-1.264l-.623-.782Zm-2.873 2.781c-.22.25-.44.51-.662.779l.772.636c.215-.262.43-.513.641-.754l-.75-.66Zm-.662.779c-.244.296-.469.585-.674.867l.807.59c.194-.265.406-.539.639-.821l-.772-.636Zm-1.782 2.665c-.371.757-.582 1.465-.62 2.114l.998.058c.028-.48.188-1.056.52-1.733l-.898-.44Zm.177 4.341c.498.506 1.194.85 2.021 1.062l.248-.97c-.714-.181-1.226-.457-1.557-.794l-.712.703Zm4.134 1.327c.647.016 1.35-.014 2.1-.09l-.1-.994c-.716.072-1.376.099-1.975.084l-.025 1Zm4.156-.387c.646-.12 1.319-.266 2.018-.44l-.242-.971c-.68.17-1.334.312-1.958.428l.182.983Zm4.009-.992c.64-.194 1.298-.409 1.971-.644l-.329-.944c-.662.23-1.306.441-1.932.63l.29.958Zm3.89-1.355c.62-.242 1.25-.5 1.891-.775l-.393-.919c-.632.27-1.253.525-1.861.763l.363.931Zm3.78-1.618a74.096 74.096 0 0 0 1.838-.885l-.446-.895a72.84 72.84 0 0 1-1.814.873l.422.907Zm3.659-1.822a81.45 81.45 0 0 0 1.809-.99l-.491-.87c-.601.338-1.197.663-1.787.977l.469.883Zm3.569-2.009a89.38 89.38 0 0 0 1.767-1.078l-.53-.848c-.586.367-1.169.723-1.748 1.067l.511.86Zm3.472-2.172a93.104 93.104 0 0 0 1.714-1.153l-.567-.824c-.567.391-1.133.771-1.696 1.141l.549.836Zm3.374-2.321a97.258 97.258 0 0 0 1.663-1.223l-.601-.8c-.55.414-1.099.817-1.646 1.211l.584.812Zm3.273-2.459a98.475 98.475 0 0 0 1.613-1.29l-.632-.775c-.533.435-1.065.861-1.597 1.278l.616.787Zm3.171-2.589c.519-.441 1.038-.891 1.557-1.35l-.663-.749c-.513.454-1.027.9-1.542 1.337l.648.762Zm3.067-2.712c.5-.46.999-.928 1.497-1.405l-.691-.723c-.493.472-.988.936-1.483 1.392l.677.736Zm2.959-2.83c.481-.478.96-.963 1.437-1.456l-.718-.696c-.473.489-.948.97-1.424 1.442l.705.71Zm2.85-2.944c.46-.494.918-.996 1.375-1.504l-.745-.668c-.452.504-.906 1-1.362 1.49l.732.682Zm2.737-3.053c.439-.51.877-1.026 1.311-1.55l-.769-.638c-.431.519-.864 1.03-1.299 1.535l.757.653Zm2.607-3.14c.423-.53.844-1.066 1.261-1.61l-.793-.609c-.413.538-.83 1.07-1.249 1.595l.781.624Zm2.49-3.24c.406-.55.809-1.106 1.208-1.67l-.815-.578c-.396.558-.796 1.11-1.198 1.654l.805.594Zm2.368-3.336c.383-.562.763-1.13 1.14-1.705l-.837-.548c-.373.57-.749 1.133-1.129 1.69l.826.563Zm2.245-3.428c.36-.572.716-1.151 1.068-1.736l-.856-.516c-.35.58-.702 1.153-1.059 1.72l.847.532Zm2.115-3.51c.337-.584.67-1.175 1-1.77l-.875-.485c-.327.591-.657 1.176-.991 1.755l.866.5Zm1.973-3.57c.319-.604.634-1.213.945-1.828l-.892-.451c-.308.61-.621 1.213-.937 1.811l.884.468Zm1.844-3.649c.296-.613.587-1.23.875-1.855l-.909-.418a105.88 105.88 0 0 1-.866 1.838l.9.435Zm1.714-3.726c.271-.617.538-1.241.8-1.87l-.923-.385c-.26.624-.524 1.242-.792 1.854l.915.401Z"/><defs><linearGradient gradientUnits="userSpaceOnUse" y2="155.808" x2="163.046" y1="155.808" x1="111.868" id="b"><stop stop-color="#FF66A9"/><stop stop-color="#F53689" offset="1"/></linearGradient><linearGradient gradientUnits="userSpaceOnUse" y2="151.598" x2="171.201" y1="151.598" x1="165.08" id="c"><stop stop-color="#83A6FF"/><stop stop-color="#5A78FF" offset="1"/></linearGradient><linearGradient gradientUnits="userSpaceOnUse" y2="142.8" x2="175.267" y1="106.691" x1="175.267" id="d"><stop stop-color="#FDFEFF"/><stop stop-color="#ECF0F5" offset=".996"/></linearGradient><linearGradient gradientUnits="userSpaceOnUse" y2="146.471" x2="199.966" y1="180.157" x1="199.966" id="e"><stop stop-opacity="0" stop-color="#606673" offset=".003"/><stop stop-color="#AAB2C5" offset="1"/></linearGradient><linearGradient gradientUnits="userSpaceOnUse" y2="175.64" x2="209.18" y1="141.656" x1="209.18" id="f"><stop stop-color="#FDFEFF"/><stop stop-color="#ECF0F5" offset=".996"/></linearGradient><filter color-interpolation-filters="sRGB" filterUnits="userSpaceOnUse" height="258" width="258" y=".61" x=".963" id="a"><feFlood result="BackgroundImageFix" flood-opacity="0"/><feColorMatrix result="hardAlpha" values="0 0 0 0 0 0 0 0 0 0 0 0 0 0 0 0 0 0 127 0" in="SourceAlpha"/><feMorphology result="effect1_dropShadow_885_47349" in="SourceAlpha" operator="dilate" radius="16"/><feOffset dy="12"/><feGaussianBlur stdDeviation="15.5"/><feColorMatrix values="0 0 0 0 0.396078 0 0 0 0 0.478431 0 0 0 0 0.576471 0 0 0 0.1 0"/><feBlend result="effect1_dropShadow_885_47349" in2="BackgroundImageFix"/><feBlend result="shape" in2="effect1_dropShadow_885_47349" in="SourceGraphic"/></filter></defs></svg>