<svg xmlns="http://www.w3.org/2000/svg" fill="none" viewBox="0 0 241 240"><g clip-path="url(#a)" opacity=".8"><path fill="#EAEEF9" d="M201.978 61.336a2.868 2.868 0 0 0 .182-4.052 2.856 2.856 0 0 0-4.053-.192 2.89 2.89 0 0 0-.181 4.07 2.854 2.854 0 0 0 4.052.174Z"/><path fill="#AAB2C5" d="M154.385 95.048c3.168 0 5.738-2.585 5.738-5.764a5.737 5.737 0 1 0-11.474 0c0 3.179 2.567 5.764 5.736 5.764Z" opacity=".3"/><g filter="url(#b)"><path fill="#000" d="M115.718 102.611c-.716 3.808-3.819 7.389-7.876 8.35-3.102.716-6.205 0-8.351-1.677v27.686H73.718c.955-1.904 1.193-3.808.955-5.957-.477-4.786-4.534-8.594-9.067-9.083-6.204-.716-11.694 4.07-11.694 10.271 0 1.677.239 3.336.955 4.524H25.754V83.52c0-10.97 8.83-19.808 20.044-19.808h53.453v27.685c1.91-1.205 3.819-1.903 5.967-1.903 6.442.943 11.693 6.427 10.5 13.117Z"/></g><path fill="url(#c)" d="M115.718 102.611c-.716 3.808-3.819 7.389-7.876 8.35-3.102.716-6.205 0-8.351-1.677v27.686H73.718c.955-1.904 1.193-3.808.955-5.957-.477-4.786-4.534-8.594-9.067-9.083-6.204-.716-11.694 4.07-11.694 10.271 0 1.677.239 3.336.955 4.524H25.754V83.52c0-10.97 8.83-19.808 20.044-19.808h53.453v27.685c1.91-1.205 3.819-1.903 5.967-1.903 6.442.943 11.693 6.427 10.5 13.117Z"/><g filter="url(#d)"><path fill="#000" d="M82.07 171.817c-.953 6.445 4.056 11.93 10.5 11.93 2.626 0 5.012-.961 6.92-2.393V210H46.038c-10.976 0-20.043-9.083-20.043-19.808v-53.467h28.873c-.716-1.415-.955-2.847-.955-4.769.239-5.013 4.057-9.31 8.83-10.026 6.443-.716 11.931 4.07 11.931 10.271 0 1.677-.24 3.109-.954 4.524h25.295v28.646c-2.149-1.904-5.012-2.864-8.114-2.393-4.534.489-8.113 4.297-8.83 8.839Z"/></g><path fill="url(#e)" d="M82.07 171.817c-.953 6.445 4.056 11.93 10.5 11.93 2.626 0 5.012-.961 6.92-2.393V210H46.038c-10.976 0-20.043-9.083-20.043-19.808v-53.467h28.873c-.716-1.415-.955-2.847-.955-4.769.239-5.013 4.057-9.31 8.83-10.026 6.443-.716 11.931 4.07 11.931 10.271 0 1.677-.24 3.109-.954 4.524h25.295v28.646c-2.149-1.904-5.012-2.864-8.114-2.393-4.534.489-8.113 4.297-8.83 8.839Z"/><g filter="url(#f)"><path fill="#000" d="M172.988 136.725v52.978c0 10.987-9.068 19.808-20.046 19.808H99.491v-28.629c-1.91 1.659-4.296 2.376-6.92 2.376-6.205 0-10.977-5.485-10.5-11.931.716-4.768 4.534-8.349 8.83-9.065 3.101-.227 6.204.716 8.111 2.393v-28.629h30.784c-.955 1.415-1.193 3.092-1.193 4.769 0 5.956 5.249 10.969 11.693 10.253 4.772-.472 8.83-4.524 9.306-9.066.238-2.148-.239-4.052-.955-5.956l24.341.699Z"/></g><path fill="url(#g)" d="M172.988 136.725v52.978c0 10.987-9.068 19.808-20.046 19.808H99.491v-28.629c-1.91 1.659-4.296 2.376-6.92 2.376-6.205 0-10.977-5.485-10.5-11.931.716-4.768 4.534-8.349 8.83-9.065 3.101-.227 6.204.716 8.111 2.393v-28.629h30.784c-.955 1.415-1.193 3.092-1.193 4.769 0 5.956 5.249 10.969 11.693 10.253 4.772-.472 8.83-4.524 9.306-9.066.238-2.148-.239-4.052-.955-5.956l24.341.699Z"/><path fill="url(#h)" d="m195.419 115.013-23.624-4.052c.476 1.903.716 3.825 0 5.729-1.433 4.524-5.728 7.633-10.5 7.388-6.204-.471-10.739-5.956-9.783-11.93.237-1.659.953-3.091 1.909-4.297l-30.545-5.484 4.772-27.441c1.909 1.904 4.772 3.109 8.113 3.109 4.296-.245 7.875-2.865 9.068-6.69 2.387-6.201-1.67-12.873-8.112-13.834-2.149-.472-4.297 0-6.205.716l4.773-27.441 52.497 9.065c10.977 1.904 18.137 12.175 16.227 22.9l-8.59 52.262Z"/><path fill="#AAB2C5" d="m201.881 135.135 7.934-2.393c.574-.157.574-.995 0-1.153l-7.934-2.393a.593.593 0 0 1-.407-.419l-2.391-7.913c-.168-.576-1.003-.576-1.169 0l-2.391 7.913a.598.598 0 0 1-.407.419l-7.916 2.393c-.575.158-.575.996 0 1.153l7.933 2.393a.57.57 0 0 1 .409.419l2.391 7.931c.166.576 1.001.576 1.167 0l2.392-7.931a.518.518 0 0 1 .389-.419Z"/><path fill="#fff" d="m189.328 65.72 9.867-2.97c.715-.209.715-1.24 0-1.449l-9.867-2.97a.72.72 0 0 1-.508-.523l-2.973-9.834c-.208-.716-1.245-.716-1.453 0l-2.975 9.834a.713.713 0 0 1-.507.524l-9.844 2.97c-.714.209-.714 1.24 0 1.449l9.867 2.97a.72.72 0 0 1 .508.506l2.973 9.869c.208.716 1.246.716 1.454 0l2.974-9.87a.656.656 0 0 1 .484-.506Z"/><path fill="#AAB2C5" d="m117.595 39.188 4.959-1.485c.358-.105.358-.629 0-.734l-4.959-1.502a.352.352 0 0 1-.255-.244l-1.495-4.961c-.103-.35-.625-.35-.728 0l-1.496 4.96a.349.349 0 0 1-.255.245l-4.946 1.502c-.36.105-.36.63 0 .734l4.959 1.485c.127.035.22.122.255.262l1.493 4.96c.105.35.625.35.73 0l1.495-4.96a.316.316 0 0 1 .243-.262Z"/></g><defs><linearGradient gradientUnits="userSpaceOnUse" y2="137.761" x2="70.792" y1="62.015" x1="70.792" id="c"><stop stop-color="#FDFEFF"/><stop stop-color="#ECF0F5" offset=".996"/></linearGradient><linearGradient gradientUnits="userSpaceOnUse" y2="210.953" x2="62.718" y1="119.818" x1="62.718" id="e"><stop stop-color="#FDFEFF"/><stop stop-color="#ECF0F5" offset=".996"/></linearGradient><linearGradient gradientUnits="userSpaceOnUse" y2="210.305" x2="127.483" y1="134.324" x1="127.483" id="g"><stop stop-color="#FDFEFF"/><stop stop-color="#ECF0F5" offset=".996"/></linearGradient><linearGradient gradientUnits="userSpaceOnUse" y2="55.5" x2="210" y1="85" x1="146" id="h"><stop stop-opacity=".03" stop-color="#005EEB"/><stop stop-opacity=".15" stop-color="#005EEB" offset="1"/></linearGradient><filter color-interpolation-filters="sRGB" filterUnits="userSpaceOnUse" height="117.258" width="134.133" y="52.712" x="3.754" id="b"><feFlood result="BackgroundImageFix" flood-opacity="0"/><feColorMatrix result="hardAlpha" values="0 0 0 0 0 0 0 0 0 0 0 0 0 0 0 0 0 0 127 0" in="SourceAlpha"/><feOffset dy="11"/><feGaussianBlur stdDeviation="11"/><feColorMatrix values="0 0 0 0 0.396078 0 0 0 0 0.478431 0 0 0 0 0.576471 0 0 0 0.27 0"/><feBlend result="effect1_dropShadow_885_47520" in2="BackgroundImageFix"/><feBlend result="shape" in2="effect1_dropShadow_885_47520" in="SourceGraphic"/></filter><filter color-interpolation-filters="sRGB" filterUnits="userSpaceOnUse" height="182.141" width="167.497" y="86.859" x="-21.006" id="d"><feFlood result="BackgroundImageFix" flood-opacity="0"/><feColorMatrix result="hardAlpha" values="0 0 0 0 0 0 0 0 0 0 0 0 0 0 0 0 0 0 127 0" in="SourceAlpha"/><feMorphology result="effect1_dropShadow_885_47520" in="SourceAlpha" operator="dilate" radius="16"/><feOffset dy="12"/><feGaussianBlur stdDeviation="15.5"/><feColorMatrix values="0 0 0 0 0.396078 0 0 0 0 0.478431 0 0 0 0 0.576471 0 0 0 0.1 0"/><feBlend result="effect1_dropShadow_885_47520" in2="BackgroundImageFix"/><feBlend result="shape" in2="effect1_dropShadow_885_47520" in="SourceGraphic"/></filter><filter color-interpolation-filters="sRGB" filterUnits="userSpaceOnUse" height="117.485" width="134.95" y="125.026" x="60.038" id="f"><feFlood result="BackgroundImageFix" flood-opacity="0"/><feColorMatrix result="hardAlpha" values="0 0 0 0 0 0 0 0 0 0 0 0 0 0 0 0 0 0 127 0" in="SourceAlpha"/><feOffset dy="11"/><feGaussianBlur stdDeviation="11"/><feColorMatrix values="0 0 0 0 0.396078 0 0 0 0 0.478431 0 0 0 0 0.576471 0 0 0 0.27 0"/><feBlend result="effect1_dropShadow_885_47520" in2="BackgroundImageFix"/><feBlend result="shape" in2="effect1_dropShadow_885_47520" in="SourceGraphic"/></filter><clipPath id="a"><path transform="translate(.5)" fill="#fff" d="M0 0h240v240H0z"/></clipPath></defs></svg>